<mxfile host="Electron" agent="Mozilla/5.0 (Windows NT 10.0; Win64; x64) AppleWebKit/537.36 (KHTML, like Gecko) draw.io/28.1.2 Chrome/138.0.7204.243 Electron/37.4.0 Safari/537.36" version="28.1.2">
  <diagram name="Page-1" id="WCYQo4gT2lrLps27R9f-">
    <mxGraphModel dx="3434" dy="1477" grid="1" gridSize="10" guides="1" tooltips="1" connect="1" arrows="1" fold="1" page="0" pageScale="1" pageWidth="827" pageHeight="1169" math="0" shadow="0">
      <root>
        <mxCell id="0" />
        <mxCell id="1" parent="0" />
        <mxCell id="ykgUGJQhO0hQS91hMayB-154" value="" style="rounded=0;whiteSpace=wrap;html=1;" parent="1" vertex="1">
          <mxGeometry x="-600" y="720" width="1470" height="600" as="geometry" />
        </mxCell>
        <mxCell id="ykgUGJQhO0hQS91hMayB-73" value="" style="rounded=0;whiteSpace=wrap;html=1;" parent="1" vertex="1">
          <mxGeometry x="-600" y="-200" width="2040" height="840" as="geometry" />
        </mxCell>
        <mxCell id="ykgUGJQhO0hQS91hMayB-1" value="London FHIR API" style="rounded=1;whiteSpace=wrap;html=1;" parent="1" vertex="1">
          <mxGeometry x="-160" y="200" width="200" height="80" as="geometry" />
        </mxCell>
        <mxCell id="ykgUGJQhO0hQS91hMayB-39" style="edgeStyle=orthogonalEdgeStyle;rounded=0;orthogonalLoop=1;jettySize=auto;html=1;exitX=1;exitY=0.5;exitDx=0;exitDy=0;entryX=0;entryY=0.5;entryDx=0;entryDy=0;" parent="1" source="ykgUGJQhO0hQS91hMayB-2" target="ykgUGJQhO0hQS91hMayB-6" edge="1">
          <mxGeometry relative="1" as="geometry">
            <Array as="points">
              <mxPoint x="120" y="300" />
              <mxPoint x="120" y="110" />
            </Array>
          </mxGeometry>
        </mxCell>
        <mxCell id="ykgUGJQhO0hQS91hMayB-2" value="Authenticate API:&amp;nbsp; GetToken&lt;br&gt;Bearer" style="rounded=0;whiteSpace=wrap;html=1;" parent="1" vertex="1">
          <mxGeometry x="-150" y="280" width="180" height="40" as="geometry" />
        </mxCell>
        <mxCell id="ykgUGJQhO0hQS91hMayB-40" style="edgeStyle=orthogonalEdgeStyle;rounded=0;orthogonalLoop=1;jettySize=auto;html=1;exitX=1;exitY=0.5;exitDx=0;exitDy=0;entryX=0;entryY=0.5;entryDx=0;entryDy=0;" parent="1" source="ykgUGJQhO0hQS91hMayB-3" target="ykgUGJQhO0hQS91hMayB-38" edge="1">
          <mxGeometry relative="1" as="geometry">
            <Array as="points">
              <mxPoint x="120" y="330" />
              <mxPoint x="120" y="390" />
            </Array>
          </mxGeometry>
        </mxCell>
        <mxCell id="ykgUGJQhO0hQS91hMayB-3" value="Patient API: GetRecord&lt;br&gt;&lt;span style=&quot;text-wrap-mode: nowrap; background-color: rgb(255, 255, 255);&quot;&gt;&lt;font style=&quot;font-size: 14px;&quot;&gt;STU3 R4&lt;/font&gt;&lt;/span&gt;" style="rounded=0;whiteSpace=wrap;html=1;" parent="1" vertex="1">
          <mxGeometry x="-150" y="320" width="180" height="40" as="geometry" />
        </mxCell>
        <mxCell id="ykgUGJQhO0hQS91hMayB-11" style="edgeStyle=orthogonalEdgeStyle;rounded=0;orthogonalLoop=1;jettySize=auto;html=1;exitX=1;exitY=0.5;exitDx=0;exitDy=0;entryX=0;entryY=0.5;entryDx=0;entryDy=0;" parent="1" source="ykgUGJQhO0hQS91hMayB-4" target="ykgUGJQhO0hQS91hMayB-9" edge="1">
          <mxGeometry relative="1" as="geometry" />
        </mxCell>
        <mxCell id="ykgUGJQhO0hQS91hMayB-4" value="Consumer Service" style="rounded=1;whiteSpace=wrap;html=1;" parent="1" vertex="1">
          <mxGeometry x="400" width="120" height="60" as="geometry" />
        </mxCell>
        <mxCell id="ykgUGJQhO0hQS91hMayB-12" style="edgeStyle=orthogonalEdgeStyle;rounded=0;orthogonalLoop=1;jettySize=auto;html=1;exitX=1;exitY=0.5;exitDx=0;exitDy=0;entryX=0;entryY=0.5;entryDx=0;entryDy=0;" parent="1" source="ykgUGJQhO0hQS91hMayB-5" target="ykgUGJQhO0hQS91hMayB-10" edge="1">
          <mxGeometry relative="1" as="geometry" />
        </mxCell>
        <mxCell id="ykgUGJQhO0hQS91hMayB-5" value="Consumer Access Service" style="rounded=1;whiteSpace=wrap;html=1;" parent="1" vertex="1">
          <mxGeometry x="400" y="80" width="120" height="60" as="geometry" />
        </mxCell>
        <mxCell id="ykgUGJQhO0hQS91hMayB-7" style="edgeStyle=orthogonalEdgeStyle;rounded=0;orthogonalLoop=1;jettySize=auto;html=1;exitX=1;exitY=0.5;exitDx=0;exitDy=0;entryX=0;entryY=0.5;entryDx=0;entryDy=0;" parent="1" source="ykgUGJQhO0hQS91hMayB-6" target="ykgUGJQhO0hQS91hMayB-4" edge="1">
          <mxGeometry relative="1" as="geometry" />
        </mxCell>
        <mxCell id="ykgUGJQhO0hQS91hMayB-8" style="edgeStyle=orthogonalEdgeStyle;rounded=0;orthogonalLoop=1;jettySize=auto;html=1;exitX=1;exitY=0.5;exitDx=0;exitDy=0;entryX=0;entryY=0.5;entryDx=0;entryDy=0;" parent="1" source="ykgUGJQhO0hQS91hMayB-6" target="ykgUGJQhO0hQS91hMayB-5" edge="1">
          <mxGeometry relative="1" as="geometry" />
        </mxCell>
        <mxCell id="ykgUGJQhO0hQS91hMayB-37" style="edgeStyle=orthogonalEdgeStyle;rounded=0;orthogonalLoop=1;jettySize=auto;html=1;exitX=1;exitY=0.5;exitDx=0;exitDy=0;entryX=0;entryY=0.5;entryDx=0;entryDy=0;" parent="1" source="ykgUGJQhO0hQS91hMayB-6" target="ykgUGJQhO0hQS91hMayB-21" edge="1">
          <mxGeometry relative="1" as="geometry">
            <mxPoint x="400" y="190" as="targetPoint" />
          </mxGeometry>
        </mxCell>
        <mxCell id="ykgUGJQhO0hQS91hMayB-56" style="edgeStyle=orthogonalEdgeStyle;rounded=0;orthogonalLoop=1;jettySize=auto;html=1;exitX=1;exitY=0.5;exitDx=0;exitDy=0;entryX=0;entryY=0.5;entryDx=0;entryDy=0;" parent="1" source="ykgUGJQhO0hQS91hMayB-6" target="ykgUGJQhO0hQS91hMayB-53" edge="1">
          <mxGeometry relative="1" as="geometry">
            <Array as="points">
              <mxPoint x="360" y="110" />
              <mxPoint x="360" y="-50" />
            </Array>
          </mxGeometry>
        </mxCell>
        <mxCell id="ykgUGJQhO0hQS91hMayB-6" value="Access Orchestration" style="rounded=1;whiteSpace=wrap;html=1;" parent="1" vertex="1">
          <mxGeometry x="200" y="80" width="120" height="60" as="geometry" />
        </mxCell>
        <mxCell id="ykgUGJQhO0hQS91hMayB-9" value="Storage Broker" style="rounded=1;whiteSpace=wrap;html=1;" parent="1" vertex="1">
          <mxGeometry x="600" width="120" height="60" as="geometry" />
        </mxCell>
        <mxCell id="ykgUGJQhO0hQS91hMayB-10" value="Storage Broker" style="rounded=1;whiteSpace=wrap;html=1;" parent="1" vertex="1">
          <mxGeometry x="600" y="80" width="120" height="60" as="geometry" />
        </mxCell>
        <mxCell id="ykgUGJQhO0hQS91hMayB-13" value="SQL" style="shape=cylinder3;whiteSpace=wrap;html=1;boundedLbl=1;backgroundOutline=1;size=15;" parent="1" vertex="1">
          <mxGeometry x="800" width="60" height="60" as="geometry" />
        </mxCell>
        <mxCell id="ykgUGJQhO0hQS91hMayB-17" style="edgeStyle=orthogonalEdgeStyle;rounded=0;orthogonalLoop=1;jettySize=auto;html=1;exitX=1;exitY=0.5;exitDx=0;exitDy=0;entryX=0;entryY=0.5;entryDx=0;entryDy=0;entryPerimeter=0;" parent="1" source="ykgUGJQhO0hQS91hMayB-9" target="ykgUGJQhO0hQS91hMayB-13" edge="1">
          <mxGeometry relative="1" as="geometry" />
        </mxCell>
        <mxCell id="ykgUGJQhO0hQS91hMayB-18" value="SQL" style="shape=cylinder3;whiteSpace=wrap;html=1;boundedLbl=1;backgroundOutline=1;size=15;" parent="1" vertex="1">
          <mxGeometry x="800" y="80" width="60" height="60" as="geometry" />
        </mxCell>
        <mxCell id="ykgUGJQhO0hQS91hMayB-19" style="edgeStyle=orthogonalEdgeStyle;rounded=0;orthogonalLoop=1;jettySize=auto;html=1;exitX=1;exitY=0.5;exitDx=0;exitDy=0;entryX=0;entryY=0.5;entryDx=0;entryDy=0;entryPerimeter=0;" parent="1" source="ykgUGJQhO0hQS91hMayB-10" target="ykgUGJQhO0hQS91hMayB-18" edge="1">
          <mxGeometry relative="1" as="geometry" />
        </mxCell>
        <mxCell id="ykgUGJQhO0hQS91hMayB-35" style="edgeStyle=orthogonalEdgeStyle;rounded=0;orthogonalLoop=1;jettySize=auto;html=1;exitX=1;exitY=0.5;exitDx=0;exitDy=0;entryX=0;entryY=0.5;entryDx=0;entryDy=0;" parent="1" source="ykgUGJQhO0hQS91hMayB-20" target="ykgUGJQhO0hQS91hMayB-29" edge="1">
          <mxGeometry relative="1" as="geometry" />
        </mxCell>
        <mxCell id="ykgUGJQhO0hQS91hMayB-20" value="PDS Service" style="rounded=1;whiteSpace=wrap;html=1;" parent="1" vertex="1">
          <mxGeometry x="400" y="520" width="120" height="60" as="geometry" />
        </mxCell>
        <mxCell id="ykgUGJQhO0hQS91hMayB-36" style="edgeStyle=orthogonalEdgeStyle;rounded=0;orthogonalLoop=1;jettySize=auto;html=1;exitX=1;exitY=0.5;exitDx=0;exitDy=0;entryX=0;entryY=0.5;entryDx=0;entryDy=0;" parent="1" source="ykgUGJQhO0hQS91hMayB-21" target="ykgUGJQhO0hQS91hMayB-32" edge="1">
          <mxGeometry relative="1" as="geometry" />
        </mxCell>
        <mxCell id="ykgUGJQhO0hQS91hMayB-21" value="ODS Service" style="rounded=1;whiteSpace=wrap;html=1;" parent="1" vertex="1">
          <mxGeometry x="400" y="160" width="120" height="60" as="geometry" />
        </mxCell>
        <mxCell id="ykgUGJQhO0hQS91hMayB-29" value="Storage Broker" style="rounded=1;whiteSpace=wrap;html=1;" parent="1" vertex="1">
          <mxGeometry x="600" y="520" width="120" height="60" as="geometry" />
        </mxCell>
        <mxCell id="ykgUGJQhO0hQS91hMayB-30" value="SQL" style="shape=cylinder3;whiteSpace=wrap;html=1;boundedLbl=1;backgroundOutline=1;size=15;" parent="1" vertex="1">
          <mxGeometry x="800" y="520" width="60" height="60" as="geometry" />
        </mxCell>
        <mxCell id="ykgUGJQhO0hQS91hMayB-31" style="edgeStyle=orthogonalEdgeStyle;rounded=0;orthogonalLoop=1;jettySize=auto;html=1;exitX=1;exitY=0.5;exitDx=0;exitDy=0;entryX=0;entryY=0.5;entryDx=0;entryDy=0;entryPerimeter=0;" parent="1" source="ykgUGJQhO0hQS91hMayB-29" target="ykgUGJQhO0hQS91hMayB-30" edge="1">
          <mxGeometry relative="1" as="geometry" />
        </mxCell>
        <mxCell id="ykgUGJQhO0hQS91hMayB-32" value="Storage Broker" style="rounded=1;whiteSpace=wrap;html=1;" parent="1" vertex="1">
          <mxGeometry x="600" y="160" width="120" height="60" as="geometry" />
        </mxCell>
        <mxCell id="ykgUGJQhO0hQS91hMayB-33" value="SQL" style="shape=cylinder3;whiteSpace=wrap;html=1;boundedLbl=1;backgroundOutline=1;size=15;" parent="1" vertex="1">
          <mxGeometry x="800" y="160" width="60" height="60" as="geometry" />
        </mxCell>
        <mxCell id="ykgUGJQhO0hQS91hMayB-34" style="edgeStyle=orthogonalEdgeStyle;rounded=0;orthogonalLoop=1;jettySize=auto;html=1;exitX=1;exitY=0.5;exitDx=0;exitDy=0;entryX=0;entryY=0.5;entryDx=0;entryDy=0;entryPerimeter=0;" parent="1" source="ykgUGJQhO0hQS91hMayB-32" target="ykgUGJQhO0hQS91hMayB-33" edge="1">
          <mxGeometry relative="1" as="geometry" />
        </mxCell>
        <mxCell id="ykgUGJQhO0hQS91hMayB-42" style="edgeStyle=orthogonalEdgeStyle;rounded=0;orthogonalLoop=1;jettySize=auto;html=1;exitX=1;exitY=0.5;exitDx=0;exitDy=0;entryX=0;entryY=0.5;entryDx=0;entryDy=0;" parent="1" source="ykgUGJQhO0hQS91hMayB-38" target="ykgUGJQhO0hQS91hMayB-41" edge="1">
          <mxGeometry relative="1" as="geometry" />
        </mxCell>
        <mxCell id="ykgUGJQhO0hQS91hMayB-61" style="edgeStyle=orthogonalEdgeStyle;rounded=0;orthogonalLoop=1;jettySize=auto;html=1;exitX=1;exitY=0.5;exitDx=0;exitDy=0;entryX=0;entryY=0.5;entryDx=0;entryDy=0;" parent="1" source="ykgUGJQhO0hQS91hMayB-38" target="ykgUGJQhO0hQS91hMayB-59" edge="1">
          <mxGeometry relative="1" as="geometry" />
        </mxCell>
        <mxCell id="ykgUGJQhO0hQS91hMayB-38" value="Patient Service" style="rounded=1;whiteSpace=wrap;html=1;" parent="1" vertex="1">
          <mxGeometry x="400" y="360" width="120" height="60" as="geometry" />
        </mxCell>
        <mxCell id="ykgUGJQhO0hQS91hMayB-52" style="edgeStyle=orthogonalEdgeStyle;rounded=0;orthogonalLoop=1;jettySize=auto;html=1;exitX=1;exitY=0.5;exitDx=0;exitDy=0;entryX=0;entryY=0.5;entryDx=0;entryDy=0;" parent="1" source="ykgUGJQhO0hQS91hMayB-41" target="ykgUGJQhO0hQS91hMayB-43" edge="1">
          <mxGeometry relative="1" as="geometry" />
        </mxCell>
        <mxCell id="ykgUGJQhO0hQS91hMayB-41" value="Patient Broker" style="rounded=1;whiteSpace=wrap;html=1;" parent="1" vertex="1">
          <mxGeometry x="600" y="360" width="120" height="60" as="geometry" />
        </mxCell>
        <mxCell id="ykgUGJQhO0hQS91hMayB-43" value="Patient Abstraction Provider" style="rounded=1;whiteSpace=wrap;html=1;" parent="1" vertex="1">
          <mxGeometry x="1001" y="360" width="120" height="60" as="geometry" />
        </mxCell>
        <mxCell id="ykgUGJQhO0hQS91hMayB-44" value="Patient Provider(s)" style="swimlane;horizontal=0;whiteSpace=wrap;html=1;" parent="1" vertex="1">
          <mxGeometry x="1181" y="240" width="200" height="280" as="geometry" />
        </mxCell>
        <mxCell id="ykgUGJQhO0hQS91hMayB-45" value="NWL DDS&lt;br&gt;Provider" style="rounded=1;whiteSpace=wrap;html=1;" parent="ykgUGJQhO0hQS91hMayB-44" vertex="1">
          <mxGeometry x="50" y="20" width="120" height="60" as="geometry" />
        </mxCell>
        <mxCell id="ykgUGJQhO0hQS91hMayB-46" value="LDS&lt;br&gt;Provider" style="rounded=1;whiteSpace=wrap;html=1;" parent="ykgUGJQhO0hQS91hMayB-44" vertex="1">
          <mxGeometry x="50" y="90" width="120" height="60" as="geometry" />
        </mxCell>
        <mxCell id="ykgUGJQhO0hQS91hMayB-50" value="Test Provider" style="rounded=1;whiteSpace=wrap;html=1;" parent="ykgUGJQhO0hQS91hMayB-44" vertex="1">
          <mxGeometry x="50" y="160" width="120" height="60" as="geometry" />
        </mxCell>
        <mxCell id="ykgUGJQhO0hQS91hMayB-48" value="" style="endArrow=classic;html=1;rounded=0;dashed=1;" parent="ykgUGJQhO0hQS91hMayB-44" edge="1">
          <mxGeometry width="50" height="50" relative="1" as="geometry">
            <mxPoint x="109.5" y="236" as="sourcePoint" />
            <mxPoint x="110" y="266" as="targetPoint" />
            <Array as="points" />
          </mxGeometry>
        </mxCell>
        <mxCell id="ykgUGJQhO0hQS91hMayB-51" style="edgeStyle=orthogonalEdgeStyle;rounded=0;orthogonalLoop=1;jettySize=auto;html=1;exitX=1;exitY=0.5;exitDx=0;exitDy=0;entryX=0.007;entryY=0.536;entryDx=0;entryDy=0;entryPerimeter=0;" parent="1" source="ykgUGJQhO0hQS91hMayB-43" target="ykgUGJQhO0hQS91hMayB-44" edge="1">
          <mxGeometry relative="1" as="geometry" />
        </mxCell>
        <mxCell id="ykgUGJQhO0hQS91hMayB-55" style="edgeStyle=orthogonalEdgeStyle;rounded=0;orthogonalLoop=1;jettySize=auto;html=1;exitX=1;exitY=0.5;exitDx=0;exitDy=0;entryX=0;entryY=0.5;entryDx=0;entryDy=0;" parent="1" source="ykgUGJQhO0hQS91hMayB-53" target="ykgUGJQhO0hQS91hMayB-54" edge="1">
          <mxGeometry relative="1" as="geometry" />
        </mxCell>
        <mxCell id="ykgUGJQhO0hQS91hMayB-53" value="Audit Broker" style="rounded=1;whiteSpace=wrap;html=1;" parent="1" vertex="1">
          <mxGeometry x="600" y="-80" width="120" height="60" as="geometry" />
        </mxCell>
        <mxCell id="ykgUGJQhO0hQS91hMayB-54" value="Audit Client" style="rounded=1;whiteSpace=wrap;html=1;" parent="1" vertex="1">
          <mxGeometry x="800" y="-80" width="120" height="60" as="geometry" />
        </mxCell>
        <mxCell id="ykgUGJQhO0hQS91hMayB-58" style="edgeStyle=orthogonalEdgeStyle;rounded=0;orthogonalLoop=1;jettySize=auto;html=1;exitX=1;exitY=0.5;exitDx=0;exitDy=0;entryX=0;entryY=0.5;entryDx=0;entryDy=0;" parent="1" source="ykgUGJQhO0hQS91hMayB-59" target="ykgUGJQhO0hQS91hMayB-60" edge="1">
          <mxGeometry relative="1" as="geometry" />
        </mxCell>
        <mxCell id="ykgUGJQhO0hQS91hMayB-59" value="Audit Broker" style="rounded=1;whiteSpace=wrap;html=1;" parent="1" vertex="1">
          <mxGeometry x="600" y="430" width="120" height="60" as="geometry" />
        </mxCell>
        <mxCell id="ykgUGJQhO0hQS91hMayB-60" value="Audit Client" style="rounded=1;whiteSpace=wrap;html=1;" parent="1" vertex="1">
          <mxGeometry x="800" y="430" width="120" height="60" as="geometry" />
        </mxCell>
        <mxCell id="ykgUGJQhO0hQS91hMayB-62" value="Consumer API" style="rounded=0;whiteSpace=wrap;html=1;fillStyle=cross-hatch;fillColor=#647687;fontColor=#000000;strokeColor=#314354;" parent="1" vertex="1">
          <mxGeometry x="-150" y="360" width="180" height="40" as="geometry" />
        </mxCell>
        <mxCell id="ykgUGJQhO0hQS91hMayB-63" value="Consumer Access API" style="rounded=0;whiteSpace=wrap;html=1;fillStyle=cross-hatch;fillColor=#647687;fontColor=#000000;strokeColor=#314354;" parent="1" vertex="1">
          <mxGeometry x="-150" y="400" width="180" height="40" as="geometry" />
        </mxCell>
        <mxCell id="ykgUGJQhO0hQS91hMayB-64" value="PDS API" style="rounded=0;whiteSpace=wrap;html=1;fillStyle=cross-hatch;fillColor=#647687;fontColor=#000000;strokeColor=#314354;" parent="1" vertex="1">
          <mxGeometry x="-150" y="440" width="180" height="40" as="geometry" />
        </mxCell>
        <mxCell id="ykgUGJQhO0hQS91hMayB-65" value="ODS API" style="rounded=0;whiteSpace=wrap;html=1;fillStyle=cross-hatch;fillColor=#647687;fontColor=#000000;strokeColor=#314354;" parent="1" vertex="1">
          <mxGeometry x="-150" y="480" width="180" height="40" as="geometry" />
        </mxCell>
        <mxCell id="ykgUGJQhO0hQS91hMayB-71" style="edgeStyle=orthogonalEdgeStyle;rounded=0;orthogonalLoop=1;jettySize=auto;html=1;exitX=0.875;exitY=0.5;exitDx=0;exitDy=0;exitPerimeter=0;entryX=0;entryY=0.5;entryDx=0;entryDy=0;" parent="1" source="ykgUGJQhO0hQS91hMayB-70" target="ykgUGJQhO0hQS91hMayB-1" edge="1">
          <mxGeometry relative="1" as="geometry" />
        </mxCell>
        <mxCell id="ykgUGJQhO0hQS91hMayB-70" value="LCR / HIE" style="ellipse;shape=cloud;whiteSpace=wrap;html=1;" parent="1" vertex="1">
          <mxGeometry x="-550" y="180" width="200" height="120" as="geometry" />
        </mxCell>
        <mxCell id="ykgUGJQhO0hQS91hMayB-74" value="London FHIR Service API" style="text;html=1;align=center;verticalAlign=middle;whiteSpace=wrap;rounded=0;fontStyle=1;fontSize=19;" parent="1" vertex="1">
          <mxGeometry x="-570" y="-160" width="240" height="30" as="geometry" />
        </mxCell>
        <mxCell id="ykgUGJQhO0hQS91hMayB-76" value="London FHIR Portal API" style="rounded=1;whiteSpace=wrap;html=1;" parent="1" vertex="1">
          <mxGeometry x="-160" y="840" width="200" height="80" as="geometry" />
        </mxCell>
        <mxCell id="ykgUGJQhO0hQS91hMayB-81" style="edgeStyle=orthogonalEdgeStyle;rounded=0;orthogonalLoop=1;jettySize=auto;html=1;exitX=1;exitY=0.5;exitDx=0;exitDy=0;entryX=0;entryY=0.5;entryDx=0;entryDy=0;" parent="1" source="ykgUGJQhO0hQS91hMayB-82" target="ykgUGJQhO0hQS91hMayB-90" edge="1">
          <mxGeometry relative="1" as="geometry" />
        </mxCell>
        <mxCell id="ykgUGJQhO0hQS91hMayB-82" value="Consumer Service" style="rounded=1;whiteSpace=wrap;html=1;" parent="1" vertex="1">
          <mxGeometry x="230" y="920" width="120" height="60" as="geometry" />
        </mxCell>
        <mxCell id="ykgUGJQhO0hQS91hMayB-83" style="edgeStyle=orthogonalEdgeStyle;rounded=0;orthogonalLoop=1;jettySize=auto;html=1;exitX=1;exitY=0.5;exitDx=0;exitDy=0;entryX=0;entryY=0.5;entryDx=0;entryDy=0;" parent="1" source="ykgUGJQhO0hQS91hMayB-84" target="ykgUGJQhO0hQS91hMayB-91" edge="1">
          <mxGeometry relative="1" as="geometry" />
        </mxCell>
        <mxCell id="ykgUGJQhO0hQS91hMayB-84" value="Consumer Access Service" style="rounded=1;whiteSpace=wrap;html=1;" parent="1" vertex="1">
          <mxGeometry x="230" y="990" width="120" height="60" as="geometry" />
        </mxCell>
        <mxCell id="ykgUGJQhO0hQS91hMayB-90" value="Storage Broker" style="rounded=1;whiteSpace=wrap;html=1;" parent="1" vertex="1">
          <mxGeometry x="430" y="920" width="120" height="60" as="geometry" />
        </mxCell>
        <mxCell id="ykgUGJQhO0hQS91hMayB-91" value="Storage Broker" style="rounded=1;whiteSpace=wrap;html=1;" parent="1" vertex="1">
          <mxGeometry x="430" y="990" width="120" height="60" as="geometry" />
        </mxCell>
        <mxCell id="ykgUGJQhO0hQS91hMayB-92" value="SQL" style="shape=cylinder3;whiteSpace=wrap;html=1;boundedLbl=1;backgroundOutline=1;size=15;" parent="1" vertex="1">
          <mxGeometry x="630" y="920" width="60" height="60" as="geometry" />
        </mxCell>
        <mxCell id="ykgUGJQhO0hQS91hMayB-93" style="edgeStyle=orthogonalEdgeStyle;rounded=0;orthogonalLoop=1;jettySize=auto;html=1;exitX=1;exitY=0.5;exitDx=0;exitDy=0;entryX=0;entryY=0.5;entryDx=0;entryDy=0;entryPerimeter=0;" parent="1" source="ykgUGJQhO0hQS91hMayB-90" target="ykgUGJQhO0hQS91hMayB-92" edge="1">
          <mxGeometry relative="1" as="geometry" />
        </mxCell>
        <mxCell id="ykgUGJQhO0hQS91hMayB-94" value="SQL" style="shape=cylinder3;whiteSpace=wrap;html=1;boundedLbl=1;backgroundOutline=1;size=15;" parent="1" vertex="1">
          <mxGeometry x="630" y="990" width="60" height="60" as="geometry" />
        </mxCell>
        <mxCell id="ykgUGJQhO0hQS91hMayB-95" style="edgeStyle=orthogonalEdgeStyle;rounded=0;orthogonalLoop=1;jettySize=auto;html=1;exitX=1;exitY=0.5;exitDx=0;exitDy=0;entryX=0;entryY=0.5;entryDx=0;entryDy=0;entryPerimeter=0;" parent="1" source="ykgUGJQhO0hQS91hMayB-91" target="ykgUGJQhO0hQS91hMayB-94" edge="1">
          <mxGeometry relative="1" as="geometry" />
        </mxCell>
        <mxCell id="ykgUGJQhO0hQS91hMayB-96" style="edgeStyle=orthogonalEdgeStyle;rounded=0;orthogonalLoop=1;jettySize=auto;html=1;exitX=1;exitY=0.5;exitDx=0;exitDy=0;entryX=0;entryY=0.5;entryDx=0;entryDy=0;" parent="1" source="ykgUGJQhO0hQS91hMayB-97" target="ykgUGJQhO0hQS91hMayB-100" edge="1">
          <mxGeometry relative="1" as="geometry" />
        </mxCell>
        <mxCell id="ykgUGJQhO0hQS91hMayB-97" value="ODS Service" style="rounded=1;whiteSpace=wrap;html=1;" parent="1" vertex="1">
          <mxGeometry x="230" y="1130" width="120" height="60" as="geometry" />
        </mxCell>
        <mxCell id="ykgUGJQhO0hQS91hMayB-98" style="edgeStyle=orthogonalEdgeStyle;rounded=0;orthogonalLoop=1;jettySize=auto;html=1;exitX=1;exitY=0.5;exitDx=0;exitDy=0;entryX=0;entryY=0.5;entryDx=0;entryDy=0;" parent="1" source="ykgUGJQhO0hQS91hMayB-99" target="ykgUGJQhO0hQS91hMayB-103" edge="1">
          <mxGeometry relative="1" as="geometry" />
        </mxCell>
        <mxCell id="ykgUGJQhO0hQS91hMayB-99" value="PDS Service" style="rounded=1;whiteSpace=wrap;html=1;" parent="1" vertex="1">
          <mxGeometry x="230" y="1060" width="120" height="60" as="geometry" />
        </mxCell>
        <mxCell id="ykgUGJQhO0hQS91hMayB-100" value="Storage Broker" style="rounded=1;whiteSpace=wrap;html=1;" parent="1" vertex="1">
          <mxGeometry x="430" y="1130" width="120" height="60" as="geometry" />
        </mxCell>
        <mxCell id="ykgUGJQhO0hQS91hMayB-101" value="SQL" style="shape=cylinder3;whiteSpace=wrap;html=1;boundedLbl=1;backgroundOutline=1;size=15;" parent="1" vertex="1">
          <mxGeometry x="630" y="1130" width="60" height="60" as="geometry" />
        </mxCell>
        <mxCell id="ykgUGJQhO0hQS91hMayB-102" style="edgeStyle=orthogonalEdgeStyle;rounded=0;orthogonalLoop=1;jettySize=auto;html=1;exitX=1;exitY=0.5;exitDx=0;exitDy=0;entryX=0;entryY=0.5;entryDx=0;entryDy=0;entryPerimeter=0;" parent="1" source="ykgUGJQhO0hQS91hMayB-100" target="ykgUGJQhO0hQS91hMayB-101" edge="1">
          <mxGeometry relative="1" as="geometry" />
        </mxCell>
        <mxCell id="ykgUGJQhO0hQS91hMayB-103" value="Storage Broker" style="rounded=1;whiteSpace=wrap;html=1;" parent="1" vertex="1">
          <mxGeometry x="430" y="1060" width="120" height="60" as="geometry" />
        </mxCell>
        <mxCell id="ykgUGJQhO0hQS91hMayB-104" value="SQL" style="shape=cylinder3;whiteSpace=wrap;html=1;boundedLbl=1;backgroundOutline=1;size=15;" parent="1" vertex="1">
          <mxGeometry x="630" y="1060" width="60" height="60" as="geometry" />
        </mxCell>
        <mxCell id="ykgUGJQhO0hQS91hMayB-105" style="edgeStyle=orthogonalEdgeStyle;rounded=0;orthogonalLoop=1;jettySize=auto;html=1;exitX=1;exitY=0.5;exitDx=0;exitDy=0;entryX=0;entryY=0.5;entryDx=0;entryDy=0;entryPerimeter=0;" parent="1" source="ykgUGJQhO0hQS91hMayB-103" target="ykgUGJQhO0hQS91hMayB-104" edge="1">
          <mxGeometry relative="1" as="geometry" />
        </mxCell>
        <mxCell id="ykgUGJQhO0hQS91hMayB-142" style="edgeStyle=orthogonalEdgeStyle;rounded=0;orthogonalLoop=1;jettySize=auto;html=1;exitX=1;exitY=0.5;exitDx=0;exitDy=0;entryX=0;entryY=0.5;entryDx=0;entryDy=0;" parent="1" source="ykgUGJQhO0hQS91hMayB-125" target="ykgUGJQhO0hQS91hMayB-82" edge="1">
          <mxGeometry relative="1" as="geometry" />
        </mxCell>
        <mxCell id="ykgUGJQhO0hQS91hMayB-125" value="Consumer API" style="rounded=0;whiteSpace=wrap;html=1;fillStyle=auto;" parent="1" vertex="1">
          <mxGeometry x="-150" y="920" width="180" height="60" as="geometry" />
        </mxCell>
        <mxCell id="ykgUGJQhO0hQS91hMayB-143" style="edgeStyle=orthogonalEdgeStyle;rounded=0;orthogonalLoop=1;jettySize=auto;html=1;exitX=1;exitY=0.5;exitDx=0;exitDy=0;entryX=0;entryY=0.5;entryDx=0;entryDy=0;" parent="1" source="ykgUGJQhO0hQS91hMayB-127" target="ykgUGJQhO0hQS91hMayB-84" edge="1">
          <mxGeometry relative="1" as="geometry" />
        </mxCell>
        <mxCell id="ykgUGJQhO0hQS91hMayB-127" value="Consumer Access API" style="rounded=0;whiteSpace=wrap;html=1;fillStyle=auto;" parent="1" vertex="1">
          <mxGeometry x="-150" y="980" width="180" height="80" as="geometry" />
        </mxCell>
        <mxCell id="ykgUGJQhO0hQS91hMayB-144" style="edgeStyle=orthogonalEdgeStyle;rounded=0;orthogonalLoop=1;jettySize=auto;html=1;exitX=1;exitY=0.5;exitDx=0;exitDy=0;entryX=0;entryY=0.5;entryDx=0;entryDy=0;" parent="1" source="ykgUGJQhO0hQS91hMayB-129" target="ykgUGJQhO0hQS91hMayB-99" edge="1">
          <mxGeometry relative="1" as="geometry" />
        </mxCell>
        <mxCell id="ykgUGJQhO0hQS91hMayB-129" value="PDS API" style="rounded=0;whiteSpace=wrap;html=1;fillStyle=auto;" parent="1" vertex="1">
          <mxGeometry x="-150" y="1060" width="180" height="60" as="geometry" />
        </mxCell>
        <mxCell id="ykgUGJQhO0hQS91hMayB-145" style="edgeStyle=orthogonalEdgeStyle;rounded=0;orthogonalLoop=1;jettySize=auto;html=1;exitX=1;exitY=0.5;exitDx=0;exitDy=0;entryX=0;entryY=0.5;entryDx=0;entryDy=0;" parent="1" source="ykgUGJQhO0hQS91hMayB-131" target="ykgUGJQhO0hQS91hMayB-97" edge="1">
          <mxGeometry relative="1" as="geometry" />
        </mxCell>
        <mxCell id="ykgUGJQhO0hQS91hMayB-131" value="ODS API" style="rounded=0;whiteSpace=wrap;html=1;fillStyle=auto;" parent="1" vertex="1">
          <mxGeometry x="-150" y="1120" width="180" height="80" as="geometry" />
        </mxCell>
        <mxCell id="ykgUGJQhO0hQS91hMayB-132" style="edgeStyle=orthogonalEdgeStyle;rounded=0;orthogonalLoop=1;jettySize=auto;html=1;exitX=1;exitY=0.5;exitDx=0;exitDy=0;entryX=0;entryY=0.5;entryDx=0;entryDy=0;" parent="1" source="ykgUGJQhO0hQS91hMayB-135" target="ykgUGJQhO0hQS91hMayB-76" edge="1">
          <mxGeometry relative="1" as="geometry">
            <mxPoint x="-295" y="880" as="sourcePoint" />
          </mxGeometry>
        </mxCell>
        <mxCell id="ykgUGJQhO0hQS91hMayB-134" value="London FHIR Service Management Portal" style="text;html=1;align=center;verticalAlign=middle;whiteSpace=wrap;rounded=0;fontStyle=1;fontSize=19;" parent="1" vertex="1">
          <mxGeometry x="-570" y="760" width="420" height="30" as="geometry" />
        </mxCell>
        <mxCell id="ykgUGJQhO0hQS91hMayB-135" value="London FHIR Management Portal - UI" style="rounded=1;whiteSpace=wrap;html=1;" parent="1" vertex="1">
          <mxGeometry x="-560" y="840" width="240" height="80" as="geometry" />
        </mxCell>
        <mxCell id="ykgUGJQhO0hQS91hMayB-153" style="edgeStyle=orthogonalEdgeStyle;rounded=0;orthogonalLoop=1;jettySize=auto;html=1;exitX=0.25;exitY=1;exitDx=0;exitDy=0;entryX=0;entryY=0.5;entryDx=0;entryDy=0;" parent="1" source="ykgUGJQhO0hQS91hMayB-136" target="ykgUGJQhO0hQS91hMayB-137" edge="1">
          <mxGeometry relative="1" as="geometry" />
        </mxCell>
        <mxCell id="ykgUGJQhO0hQS91hMayB-136" value="&lt;font style=&quot;font-size: 14px;&quot;&gt;Consumer UI&lt;/font&gt;&lt;br&gt;&lt;br&gt;Search / Create / Update / View" style="rounded=0;whiteSpace=wrap;html=1;" parent="1" vertex="1">
          <mxGeometry x="-550" y="920" width="220" height="80" as="geometry" />
        </mxCell>
        <mxCell id="ykgUGJQhO0hQS91hMayB-137" value="&lt;font style=&quot;font-size: 14px;&quot;&gt;Consumer Access UI&lt;/font&gt;&lt;br&gt;Grant / Remove Access to&amp;nbsp;" style="rounded=0;whiteSpace=wrap;html=1;" parent="1" vertex="1">
          <mxGeometry x="-430" y="1000" width="180" height="70" as="geometry" />
        </mxCell>
        <mxCell id="ykgUGJQhO0hQS91hMayB-150" style="edgeStyle=orthogonalEdgeStyle;rounded=0;orthogonalLoop=1;jettySize=auto;html=1;exitX=1;exitY=0.5;exitDx=0;exitDy=0;entryX=0;entryY=0.5;entryDx=0;entryDy=0;" parent="1" source="ykgUGJQhO0hQS91hMayB-146" target="ykgUGJQhO0hQS91hMayB-147" edge="1">
          <mxGeometry relative="1" as="geometry" />
        </mxCell>
        <mxCell id="ykgUGJQhO0hQS91hMayB-146" value="Provider Service" style="rounded=1;whiteSpace=wrap;html=1;" parent="1" vertex="1">
          <mxGeometry x="230" y="1200" width="120" height="60" as="geometry" />
        </mxCell>
        <mxCell id="ykgUGJQhO0hQS91hMayB-147" value="Storage Broker" style="rounded=1;whiteSpace=wrap;html=1;" parent="1" vertex="1">
          <mxGeometry x="430" y="1200" width="120" height="60" as="geometry" />
        </mxCell>
        <mxCell id="ykgUGJQhO0hQS91hMayB-148" value="SQL" style="shape=cylinder3;whiteSpace=wrap;html=1;boundedLbl=1;backgroundOutline=1;size=15;" parent="1" vertex="1">
          <mxGeometry x="630" y="1200" width="60" height="60" as="geometry" />
        </mxCell>
        <mxCell id="ykgUGJQhO0hQS91hMayB-149" style="edgeStyle=orthogonalEdgeStyle;rounded=0;orthogonalLoop=1;jettySize=auto;html=1;exitX=1;exitY=0.5;exitDx=0;exitDy=0;entryX=0;entryY=0.5;entryDx=0;entryDy=0;entryPerimeter=0;" parent="1" source="ykgUGJQhO0hQS91hMayB-147" target="ykgUGJQhO0hQS91hMayB-148" edge="1">
          <mxGeometry relative="1" as="geometry" />
        </mxCell>
        <mxCell id="ykgUGJQhO0hQS91hMayB-151" value="Provider API" style="rounded=0;whiteSpace=wrap;html=1;fillStyle=auto;" parent="1" vertex="1">
          <mxGeometry x="-150" y="1200" width="180" height="60" as="geometry" />
        </mxCell>
        <mxCell id="ykgUGJQhO0hQS91hMayB-152" value="&lt;font style=&quot;font-size: 14px;&quot;&gt;Providers UI&lt;/font&gt;&lt;br&gt;&lt;br&gt;Search / Create / Update / View&amp;nbsp;" style="rounded=0;whiteSpace=wrap;html=1;" parent="1" vertex="1">
          <mxGeometry x="-550" y="1070" width="220" height="70" as="geometry" />
        </mxCell>
        <mxCell id="1gB4xAMYHLhnfdmMWIDO-3" value="fhir.dataservice.london.nhs.uk" style="text;html=1;align=center;verticalAlign=middle;whiteSpace=wrap;rounded=0;" vertex="1" parent="1">
          <mxGeometry x="1670" y="40" width="60" height="30" as="geometry" />
        </mxCell>
        <UserObject label="&lt;span style=&quot;color: rgb(0, 0, 0); font-family: Helvetica; font-size: 12px; font-style: normal; font-variant-ligatures: normal; font-variant-caps: normal; font-weight: 400; letter-spacing: normal; orphans: 2; text-align: center; text-indent: 0px; text-transform: none; widows: 2; word-spacing: 0px; -webkit-text-stroke-width: 0px; white-space: normal; background-color: rgb(236, 236, 236); text-decoration-thickness: initial; text-decoration-style: initial; text-decoration-color: initial; display: inline !important; float: none;&quot;&gt;fhir-admin.dataservice.london.nhs.uk&lt;/span&gt;" link="&lt;span style=&quot;color: rgb(0, 0, 0); font-family: Helvetica; font-size: 12px; font-style: normal; font-variant-ligatures: normal; font-variant-caps: normal; font-weight: 400; letter-spacing: normal; orphans: 2; text-align: center; text-indent: 0px; text-transform: none; widows: 2; word-spacing: 0px; -webkit-text-stroke-width: 0px; white-space: normal; background-color: rgb(236, 236, 236); text-decoration-thickness: initial; text-decoration-style: initial; text-decoration-color: initial; display: inline !important; float: none;&quot;&gt;fhir.dataservice.london.nhs.uk&lt;/span&gt;" id="1gB4xAMYHLhnfdmMWIDO-5">
          <mxCell style="text;whiteSpace=wrap;html=1;" vertex="1" parent="1">
            <mxGeometry x="1620" y="70" width="240" height="40" as="geometry" />
          </mxCell>
        </UserObject>
        <mxCell id="1gB4xAMYHLhnfdmMWIDO-6" value="" style="ellipse;shape=cloud;whiteSpace=wrap;html=1;" vertex="1" parent="1">
          <mxGeometry x="1490" y="246" width="120" height="80" as="geometry" />
        </mxCell>
        <mxCell id="1gB4xAMYHLhnfdmMWIDO-7" style="edgeStyle=orthogonalEdgeStyle;rounded=0;orthogonalLoop=1;jettySize=auto;html=1;exitX=1;exitY=0.5;exitDx=0;exitDy=0;entryX=0.16;entryY=0.55;entryDx=0;entryDy=0;entryPerimeter=0;" edge="1" parent="1" source="ykgUGJQhO0hQS91hMayB-45" target="1gB4xAMYHLhnfdmMWIDO-6">
          <mxGeometry relative="1" as="geometry" />
        </mxCell>
        <mxCell id="1gB4xAMYHLhnfdmMWIDO-8" value="" style="ellipse;shape=cloud;whiteSpace=wrap;html=1;" vertex="1" parent="1">
          <mxGeometry x="1492" y="316" width="120" height="80" as="geometry" />
        </mxCell>
        <mxCell id="1gB4xAMYHLhnfdmMWIDO-9" style="edgeStyle=orthogonalEdgeStyle;rounded=0;orthogonalLoop=1;jettySize=auto;html=1;exitX=1;exitY=0.5;exitDx=0;exitDy=0;entryX=0.16;entryY=0.55;entryDx=0;entryDy=0;entryPerimeter=0;" edge="1" parent="1" source="ykgUGJQhO0hQS91hMayB-46" target="1gB4xAMYHLhnfdmMWIDO-8">
          <mxGeometry relative="1" as="geometry" />
        </mxCell>
      </root>
    </mxGraphModel>
  </diagram>
</mxfile>
